HIERARCHY
ROOT Hips
{
	OFFSET 0.0000 0.0000 0.0000
	CHANNELS 6 Xposition Yposition Zposition Zrotation Xrotation Yrotation
	JOINT Ab
	{
		OFFSET -0.0000 8.0846 -0.0000
		CHANNELS 3 Zrotation Xrotation Yrotation
		JOINT Chest
		{
			OFFSET -0.0000 25.0068 -0.0000
			CHANNELS 3 Zrotation Xrotation Yrotation
			JOINT Neck
			{
				OFFSET -0.0000 25.0068 0.0000
				CHANNELS 3 Zrotation Xrotation Yrotation
				JOINT Head
				{
					OFFSET -0.0000 10.7556 0.0000
					CHANNELS 3 Zrotation Xrotation Yrotation
					End Site
					{
						OFFSET -0.0000 16.6222 0.0000
					}
				}
			}
			JOINT LeftCollar
			{
				OFFSET -0.0000 25.0068 0.0000
				CHANNELS 3 Zrotation Xrotation Yrotation
				JOINT LeftShoulder
				{
					OFFSET 19.5556 -0.0000 0.0000
					CHANNELS 3 Zrotation Xrotation Yrotation
					JOINT LeftElbow
					{
						OFFSET 27.1828 0.0000 0.0000
						CHANNELS 3 Zrotation Xrotation Yrotation
						JOINT LeftWrist
						{
							OFFSET 23.3157 0.0000 0.0000
							CHANNELS 3 Zrotation Xrotation Yrotation
							End Site
							{
								OFFSET 0.0000 -14.6667 0.0000
							}
						}
					}
				}
			}
			JOINT RightCollar
			{
				OFFSET -0.0000 25.0068 0.0000
				CHANNELS 3 Zrotation Xrotation Yrotation
				JOINT RightShoulder
				{
					OFFSET -19.5556 0.0000 0.0000
					CHANNELS 3 Zrotation Xrotation Yrotation
					JOINT RightElbow
					{
						OFFSET -27.1828 0.0000 0.0000
						CHANNELS 3 Zrotation Xrotation Yrotation
						JOINT RightWrist
						{
							OFFSET -23.3157 0.0000 0.0000
							CHANNELS 3 Zrotation Xrotation Yrotation
							End Site
							{
								OFFSET -0.0000 -14.6667 0.0000
							}
						}
					}
				}
			}
		}
	}
	JOINT LeftHip
	{
		OFFSET 11.7333 0.0000 0.0000
		CHANNELS 3 Zrotation Xrotation Yrotation
		JOINT LeftKnee
		{
			OFFSET -0.0000 -40.8688 0.0000
			CHANNELS 3 Zrotation Xrotation Yrotation
			JOINT LeftAnkle
			{
				OFFSET -0.0000 -44.4337 0.0000
				CHANNELS 3 Zrotation Xrotation Yrotation
				End Site
				{
					OFFSET -0.0000 -4.8889 16.6222
				}
			}
		}
	}
	JOINT RightHip
	{
		OFFSET -11.7333 0.0000 0.0000
		CHANNELS 3 Zrotation Xrotation Yrotation
		JOINT RightKnee
		{
			OFFSET -0.0000 -40.8688 0.0000
			CHANNELS 3 Zrotation Xrotation Yrotation
			JOINT RightAnkle
			{
				OFFSET -0.0000 -44.4337 0.0000
				CHANNELS 3 Zrotation Xrotation Yrotation
				End Site
				{
					OFFSET -0.0000 -4.8889 16.6222
				}
			}
		}
	}
}
MOTION
Frames: 20
Frame Time: 0.010000
1.3047 82.4955 90.2272 359.9529 356.1614 169.8181 359.5987 3.4240 5.2707 351.7335 10.6140 6.0277 5.1994 332.8912 0.4806 359.3183 359.9285 359.1986 340.7241 358.9483 5.6230 296.7514 352.6571 12.9253 5.5178 358.5020 324.0011 83.4036 4.9417 317.1189 20.2836 359.3076 356.2213 24.2295 44.0497 44.3233 327.5118 347.7262 40.6159 272.5011 350.7445 12.3583 5.4040 325.0375 355.7602 352.3065 26.6755 3.6616 357.7765 356.0260 23.4939 357.5757 4.2530 1.0959 356.2721 39.6850 13.4264 5.2794 342.2573 344.2020 
1.0910 82.6612 88.7661 359.8038 356.2765 170.0211 359.5361 3.3548 5.1253 351.4343 10.7587 5.9199 5.2401 332.6227 0.4187 359.4881 0.3728 359.1363 340.7807 359.0356 5.2506 296.8624 352.7449 12.6642 5.3741 358.4152 324.2637 83.1796 5.4612 316.4873 20.2517 359.3096 356.2757 26.5736 44.0403 42.3126 327.7396 347.7775 40.9314 271.7682 350.7936 12.4541 5.0060 325.3002 356.2952 352.0521 28.0240 2.9800 357.1867 356.0064 23.4917 357.3309 3.2431 1.5813 356.7718 42.6593 10.1521 5.0398 345.5305 345.8205 
0.8993 82.8563 87.3103 359.7186 356.5378 170.2829 359.5076 3.5236 4.9000 351.2074 10.6187 5.7045 5.2589 332.7486 0.3694 359.5381 0.6265 359.0906 340.8874 359.1379 4.5927 297.1999 351.6198 12.8864 4.5574 358.7394 324.2299 83.2462 5.8108 315.0079 20.2603 359.3487 356.5044 28.7875 44.0614 40.3223 328.2877 348.0674 40.7627 271.1993 350.6940 12.5033 4.6464 325.9545 356.6524 351.7731 28.9439 2.9192 357.1505 356.1294 23.0759 357.1553 2.3046 1.9599 357.5442 45.5897 6.1002 4.0406 349.5351 347.1767 
0.7006 83.0660 85.8632 359.6689 356.7714 170.4498 359.5652 3.6511 4.6728 350.9695 10.4335 5.4862 5.2521 333.0019 0.4182 359.7317 0.9871 359.1677 341.0153 359.2427 4.0549 297.4670 350.6956 13.0409 3.9337 358.9277 323.9658 82.9913 6.5538 313.8549 20.1830 359.4126 356.9804 31.7764 43.9083 37.4182 328.8307 348.2229 41.3020 270.7326 351.2118 12.6976 4.4386 326.8168 356.9090 351.3645 29.4177 3.6103 356.5179 355.8458 22.4545 357.0667 1.1135 2.0290 357.8156 48.6213 2.2595 5.0026 353.0611 349.5065 
0.4938 83.2823 84.4250 359.5888 356.9844 170.5395 359.9883 3.5632 4.1942 350.3027 10.5890 5.0955 5.0426 333.1768 0.5229 0.2370 1.3260 359.3387 341.4402 359.3403 3.7336 297.4644 349.1761 12.9533 3.0079 359.2771 323.6510 83.2398 7.2670 312.0956 20.3536 359.4811 357.4986 33.9555 43.2908 35.4106 330.1695 348.8523 41.5318 270.0334 351.9967 12.7862 4.2819 327.8025 357.4341 351.0317 29.6925 3.5342 356.3531 355.2344 22.0825 356.9443 359.7377 2.0200 357.7887 52.0068 0.5358 5.5373 356.4523 350.5773 
0.3896 83.5037 82.8482 359.6508 357.8467 170.8033 359.8874 4.0481 3.8344 350.4009 10.6342 4.7268 5.0349 333.5249 0.7252 0.3376 1.6262 359.5665 341.5804 359.3838 3.7495 297.3017 349.3243 12.5512 2.9720 359.1386 323.4012 82.8642 8.0173 311.4159 20.3164 359.5592 357.9050 35.9296 43.1542 33.5531 331.1328 349.2149 41.4668 269.8521 352.4945 12.9595 4.1215 329.6284 358.0964 350.8472 29.8327 3.0010 357.3400 355.0678 21.7859 356.9442 359.2450 2.3255 358.5648 55.0504 358.4151 1.6776 358.8118 350.9295 
0.1494 83.7396 81.5382 359.3850 357.7093 170.8078 359.7708 3.7916 3.5502 350.3719 10.3566 4.4177 4.9449 333.9215 0.9663 0.5669 1.8617 359.7824 341.6365 359.3480 4.0204 297.0316 350.8346 11.7350 3.6118 358.7541 323.6131 82.3070 8.2510 311.7488 20.3525 359.6104 358.1179 37.2469 43.2094 32.3441 332.1110 349.6583 41.0971 269.9270 352.8252 13.1888 3.6133 330.1339 358.9481 351.1561 30.3166 2.5773 357.7353 354.4772 21.2900 356.6501 357.3026 2.2859 358.8885 58.2116 357.0997 0.5162 0.7414 351.3373 
-0.0971 84.0113 80.2630 359.2703 357.5962 171.0892 359.6366 3.7504 3.2802 350.6528 9.8739 4.0791 5.1200 334.2861 1.0581 0.1271 2.1979 359.8951 341.5482 359.3816 3.8471 297.0015 351.6137 11.3470 3.8594 358.6602 323.5577 82.4683 8.1565 311.8606 20.3617 359.6380 357.8525 38.4085 43.2694 31.3400 333.1297 350.1607 40.6244 270.0938 353.2905 13.2241 3.0723 330.7220 359.3122 351.4602 30.5516 2.3721 357.9890 353.9144 20.7245 356.5722 355.4004 1.7873 358.7792 61.3092 357.2244 0.0882 1.3732 350.2376 
-0.2756 84.2849 78.8981 359.1628 357.9001 171.4157 359.4976 3.7491 2.9096 350.8078 9.9142 3.6943 5.5119 334.5271 1.2390 359.6378 2.5719 359.9801 341.6462 359.3881 3.7747 296.7857 352.8535 10.6186 4.3940 358.4259 323.4163 82.5709 7.8729 312.8196 20.3591 359.6101 357.8998 40.0429 43.1143 29.8748 333.9520 350.5447 40.2105 271.0026 352.9882 13.9767 2.4390 331.9501 359.7512 351.9106 30.4781 1.9863 358.1975 353.2578 20.3108 356.5112 354.1224 1.4256 359.0104 63.8641 356.9465 359.4436 0.5782 348.9728 
-0.4766 84.5838 77.5682 359.1495 358.0236 171.6143 359.3460 3.7724 2.7157 351.1749 9.6213 3.4398 5.8374 334.7673 1.4418 359.3331 3.0166 0.1783 341.5585 359.3824 3.7113 296.7863 353.8392 10.1099 4.6912 358.3393 323.0829 82.6020 7.5216 313.7002 20.3383 359.5829 357.6780 41.1887 43.2981 28.7864 334.8018 350.9698 39.7333 272.1613 353.1283 14.9734 2.1377 333.2464 359.5321 351.7891 29.9633 1.5597 358.3515 352.8748 20.4029 356.5248 352.6075 1.4733 0.1477 66.1776 355.8880 356.7238 0.8638 347.7924 
-0.7064 84.8762 76.2360 358.9972 358.0344 171.7964 359.3294 3.4276 2.3339 351.3310 9.7268 3.0518 5.8331 335.0132 1.5374 359.3121 3.2785 0.2897 341.6087 359.4054 3.6373 296.6378 354.9977 9.3862 5.0450 358.2105 322.8668 83.3518 6.8367 315.4727 20.2701 359.5578 357.5482 42.6578 43.1212 27.4818 335.8231 351.5083 39.1616 272.8415 352.5346 16.6665 1.5365 334.4206 359.3462 351.9770 29.3715 1.5461 358.3592 352.4763 20.1119 356.3866 350.9164 1.1688 0.5062 68.1511 356.5347 357.8566 359.7703 346.4000 
-0.7064 84.8762 76.2359 358.9973 358.0345 171.7964 359.3294 3.4277 2.3331 351.3080 9.7220 3.0526 5.8708 334.9244 1.7438 359.4298 3.3591 0.4720 341.5983 359.3561 4.0364 296.5829 355.0155 9.2438 5.0889 358.2475 322.7671 83.3816 6.8854 315.5936 20.2250 359.5939 357.8587 42.6629 43.1842 27.4735 335.9929 351.4701 39.1792 272.8764 352.5030 16.8437 1.5365 334.4207 359.3462 351.9769 29.3714 1.5461 358.3593 352.4763 20.1119 356.3866 350.9165 1.1688 0.5062 68.1511 356.5347 357.8565 359.7703 346.4000 
-0.9388 85.5397 73.6063 359.4734 358.6838 172.7805 359.3376 3.8973 1.5606 352.5101 9.3628 2.1512 5.9374 335.5214 1.4794 358.8265 3.9335 0.2142 341.4081 359.4234 3.1924 296.6656 358.4717 8.0423 6.4263 357.5659 322.6459 83.7396 5.1005 319.4986 20.2000 359.5001 356.6730 45.1176 42.5985 24.7723 337.5987 352.3753 38.4970 275.0270 352.0435 19.1965 1.0462 337.4271 358.2281 352.1501 28.0950 1.4872 358.3736 351.7577 19.8235 357.0481 348.7082 0.5610 2.3985 70.4497 354.3768 354.3434 357.9859 346.1985 
-1.0043 85.8899 72.3223 359.7995 358.9510 173.3133 359.4162 4.1192 1.1013 353.0989 9.1424 1.6286 6.0885 335.7941 1.8044 359.0353 4.1554 0.5643 341.3799 359.3874 3.6318 296.6143 0.1297 7.0696 7.1938 357.2911 322.2565 83.8195 4.8802 322.0125 20.0336 359.4653 356.7852 46.3956 43.0072 23.1956 338.2252 352.6049 38.0798 275.6035 351.6216 20.3496 0.9365 338.8854 357.6543 352.3009 27.4132 1.3671 358.2280 351.3520 19.8360 357.5302 347.5537 0.4825 4.0664 71.0650 352.4734 356.3391 357.1072 345.9729 
-1.1041 86.2266 71.0371 0.0602 359.0509 173.5500 359.4603 4.1238 0.8305 353.6711 8.9459 1.3020 6.2382 336.0030 2.0195 358.9085 4.3947 0.7528 341.3377 359.3403 3.8934 296.6666 1.9540 6.1912 7.9893 356.9971 322.0040 84.0850 3.8627 323.8879 19.9537 359.4214 356.5917 47.4123 43.1933 21.8581 338.9648 352.9378 37.6630 276.1981 351.4454 21.5687 0.9061 340.3659 357.4014 352.4597 26.4265 1.2166 357.9931 351.1153 19.7580 357.9514 346.1589 0.6363 5.9569 71.4239 350.5184 356.0084 356.6184 345.8228 
-1.2012 86.5363 69.8650 0.2473 359.0894 174.0334 359.4937 4.2067 0.3704 354.1829 8.7371 0.8805 6.3912 336.1174 2.0646 358.6902 4.6002 0.7606 341.4493 359.3677 3.8789 296.7036 3.7283 5.1706 8.7126 356.7518 322.0399 84.8835 2.5369 326.1951 19.8684 359.3743 356.1644 48.4490 43.1914 20.6865 339.7696 353.3443 36.9162 276.3990 351.1139 22.6532 0.7007 341.5086 357.0511 352.7613 25.7455 1.0710 357.7935 350.8528 19.5935 358.2752 344.6321 0.3773 7.1433 71.7979 349.8987 355.8714 355.9879 345.5067 
-1.2533 86.8381 68.5622 0.5294 359.4999 174.3025 359.4184 4.5183 0.1527 354.8808 8.6223 0.5504 6.6843 336.0743 2.4119 358.4462 5.2048 1.0918 341.2234 359.2487 5.1542 296.9764 10.4894 3.2734 12.2306 355.0856 323.0183 84.3091 1.6162 332.0182 19.7095 359.3367 355.9925 49.5631 43.2204 19.2579 340.4930 353.6749 36.4558 276.5779 351.0082 23.8208 0.7053 343.2608 357.1146 353.0706 24.8812 0.7229 357.5672 350.5478 19.4739 358.7387 343.6842 0.3934 8.1292 71.6323 349.2801 354.7128 355.2617 345.4426 
-1.3086 87.1102 67.3919 0.7210 359.3551 174.6040 359.3809 4.3876 359.8622 355.4625 8.4105 0.1995 6.8550 336.1844 2.5352 358.2477 5.3668 1.1777 341.3331 359.1871 5.2682 297.1881 12.4074 2.2961 13.0291 355.1056 322.7951 85.4079 1.3011 333.6443 19.6108 359.2811 355.6681 50.7996 43.1373 17.7341 341.1276 353.9666 35.9132 276.6876 350.9331 24.9752 0.6773 344.3059 357.1758 353.4187 24.0392 0.4757 357.3151 350.4110 19.1966 359.1596 342.0074 0.2942 8.8378 71.4448 350.3570 356.2509 354.4616 344.0614 
-1.3454 87.3754 66.2186 0.9131 359.5177 175.0562 359.2867 4.6241 359.5375 356.0980 8.2074 359.7739 7.0395 336.2017 2.6415 358.0876 5.5827 1.2512 341.4195 359.1553 5.3091 297.5084 14.0453 1.3549 14.0021 354.8200 322.1736 85.5976 1.4057 336.0882 19.5324 359.2387 355.2969 51.8546 42.9466 16.3478 341.8586 354.3073 35.3582 276.5692 350.7232 25.9913 0.6026 345.6446 357.1376 353.7548 23.2908 0.4352 357.0839 350.0439 18.6836 359.5105 340.7877 0.1275 9.6231 70.7026 348.8588 355.9873 353.3146 344.9612 
-1.3707 87.6110 64.9403 1.1469 359.8881 175.4871 359.1488 4.8142 359.2681 356.7937 8.3492 359.4624 7.2893 336.1020 2.7811 357.9281 5.7948 1.3441 341.4455 359.0862 5.9727 298.1768 17.9608 359.4566 15.9026 354.0746 322.8753 86.1783 0.7184 339.7378 19.2165 359.2124 355.2136 53.5937 43.3445 14.4866 341.6246 354.1924 34.7321 276.6976 350.9253 26.4504 0.5804 347.3787 356.6999 353.9340 22.2596 0.0951 357.1636 349.8228 18.9613 359.8823 339.9463 359.8597 9.4186 69.7507 348.6720 357.5257 352.4974 346.0826 
